<svg version="1.1" xmlns="http://www.w3.org/2000/svg" xmlns:xlink="http://www.w3.org/1999/xlink" xmlns:i="http://ns.adobe.com/AdobeIllustrator/10.0/" xmlns:sketch="http://www.bohemiancoding.com/sketch/ns" height="100%" width="100%" x="0px" y="0px" viewBox="0 0 640 480" xml:space="preserve" preserveAspectRatio="xMidYMid meet" class=""><rect x="0px" y="0px" width="100%" height="100%" fill="none"/><g class="logo-container-box logoContainerBox" transform="scale(0.75) translate(106.66665140787762,80.00000762939453)"><g class="containerBody" transform="scale(1.0563081576219693) translate(-14.09638454363693,-12.793598069592917)" ><g class="sampleIconBox" transform="scale(1) translate(0,0)"><g class="sampleIcons_1" transform="scale(1.3259434216122141) translate(56.57879368591307,131.00519714355468)" fill="#ffffff"><path d="M45.438,35.409c-0.061-0.318-0.318-0.562-0.64-0.604l-17.455-2.279c-0.32-0.043-0.633,0.127-0.773,0.419  c-1.291,2.688-2.224,5.811-2.773,9.085c-0.017,0.049-0.043,0.094-0.05,0.147c-0.005,0.036,0.007,0.069,0.007,0.104  c-0.061,0.375-0.14,0.743-0.189,1.122c-0.701,5.369-0.26,10.572,1.242,14.65c1.24,3.365,3.099,5.646,5.331,6.652l-2.371,18.156  l-5.348-0.162c-0.368-0.004-0.716,0.271-0.766,0.652l-0.218,1.666c-0.026,0.197,0.028,0.398,0.149,0.555  c0.122,0.158,0.3,0.262,0.498,0.287l14.103,1.842c0.032,0.004,0.065,0.006,0.098,0.006c0.371,0,0.693-0.273,0.742-0.652l0.219-1.666  c0.051-0.381-0.197-0.74-0.572-0.828l-5.21-1.217l2.369-18.137c5.52-0.906,10.495-8.734,11.826-18.92  c0.045-0.345,0.061-0.688,0.096-1.032c0.027-0.063,0.055-0.126,0.064-0.197c0.013-0.096,0.003-0.19-0.02-0.279  C46.092,41.515,45.988,38.301,45.438,35.409z M29.885,83.824c-0.05,0.383,0.198,0.74,0.573,0.828l5.21,1.217l-0.033,0.25  L23.02,84.471l0.033-0.248l5.348,0.16c0.35-0.012,0.716-0.27,0.767-0.652l2.421-18.542c0.12,0.022,0.238,0.042,0.357,0.058  c0.121,0.016,0.241,0.027,0.362,0.036L29.885,83.824z M44.168,46.095c-1.266,9.685-6.048,17.345-11.028,17.693  c-0.011,0.001-0.02-0.005-0.03-0.005c-0.324,0.023-0.642,0.017-0.963-0.023c-0.003-0.001-0.005,0-0.007-0.001  c-0.271-0.035-0.534-0.103-0.796-0.183c-0.049-0.016-0.096-0.025-0.146-0.043c-0.002,0-0.003,0-0.005,0  c-2.052-0.703-3.797-2.789-4.979-5.998c-1.419-3.854-1.833-8.804-1.163-13.937c0.021-0.163,0.057-0.321,0.081-0.483l19.082,2.492  C44.195,45.77,44.189,45.931,44.168,46.095z M44.357,44.113l-18.979-2.479c0.502-2.704,1.28-5.28,2.314-7.549l16.368,2.137  C44.477,38.68,44.565,41.37,44.357,44.113z M27.061,50.374c-0.412,0.043-0.71,0.413-0.667,0.825  c0.364,3.437,1.256,6.475,2.582,8.786c0.139,0.242,0.391,0.377,0.651,0.377c0.126,0,0.254-0.031,0.372-0.099  c0.359-0.206,0.483-0.665,0.277-1.024c-1.222-2.132-2.049-4.967-2.391-8.198C27.842,50.629,27.473,50.333,27.061,50.374z   M26.965,48.992h0.013c0.414-0.007,0.744-0.349,0.737-0.763c-0.014-0.812,0.001-1.647,0.046-2.485  c0.022-0.414-0.295-0.767-0.709-0.789c-0.419-0.016-0.767,0.296-0.789,0.709c-0.046,0.873-0.062,1.744-0.048,2.59  C26.223,48.665,26.557,48.992,26.965,48.992z M55.329,45.223c-0.315-0.74-0.616-1.52-0.892-2.319  c-0.135-0.391-0.561-0.599-0.954-0.464c-0.392,0.135-0.599,0.562-0.464,0.954c0.287,0.833,0.601,1.646,0.931,2.418  c0.121,0.285,0.398,0.456,0.689,0.456c0.099,0,0.198-0.019,0.295-0.06C55.315,46.044,55.492,45.604,55.329,45.223z M56.542,47.764  c-0.194-0.365-0.648-0.502-1.015-0.308c-0.365,0.195-0.503,0.65-0.308,1.015c1.629,3.048,3.598,5.529,5.694,7.173  c0.138,0.108,0.301,0.16,0.462,0.16c0.223,0,0.443-0.098,0.591-0.287c0.256-0.325,0.199-0.797-0.127-1.053  C59.906,52.947,58.074,50.631,56.542,47.764z M78.546,77.705l-0.424-1.623c-0.097-0.373-0.463-0.607-0.842-0.551l-5.285,0.828  l-4.624-17.715c4.75-2.889,6.469-11.938,3.854-21.96c-0.089-0.342-0.205-0.669-0.303-1.006c0-0.064,0.006-0.128-0.011-0.193  c-0.024-0.094-0.068-0.178-0.123-0.252c-0.952-3.137-2.256-6.076-3.854-8.549c-0.176-0.272-0.508-0.401-0.819-0.319l-17.033,4.447  c-0.313,0.082-0.539,0.355-0.559,0.679c-0.189,3.019,0.105,6.315,0.852,9.606c0.001,0.004,0,0.007,0.001,0.011  c0.001,0.003,0.004,0.006,0.005,0.01c0.09,0.398,0.185,0.797,0.288,1.194c2.577,9.867,8.472,17.055,14.098,17.277l4.624,17.712  l-5.016,1.859c-0.361,0.135-0.562,0.52-0.465,0.893l0.424,1.625c0.05,0.193,0.175,0.357,0.347,0.459  c0.115,0.066,0.247,0.102,0.379,0.102c0.063,0,0.127-0.008,0.189-0.023l13.761-3.594C78.41,78.516,78.65,78.105,78.546,77.705z   M49.991,32.124l15.973-4.169c1.31,2.122,2.403,4.58,3.24,7.2l-18.52,4.836C50.134,37.295,49.886,34.616,49.991,32.124z   M65.265,57.953c-0.001,0-0.003,0-0.004,0c-0.278,0.073-0.581,0.115-0.897,0.136c-0.11,0.007-0.219,0.021-0.33,0.021  c-0.001,0-0.001,0-0.001,0c-4.952,0-10.504-6.955-12.912-16.176c-0.042-0.159-0.067-0.318-0.107-0.478l18.62-4.862  c0.044,0.158,0.099,0.311,0.141,0.47c2.488,9.535,0.869,18.363-3.574,20.542c-0.008,0.002-0.017,0.002-0.024,0.005  c-0.027,0.013-0.052,0.021-0.079,0.034c-0.268,0.123-0.541,0.232-0.827,0.307C65.267,57.952,65.266,57.953,65.265,57.953z   M64.596,80.574l-0.062-0.242l5.016-1.861c0.361-0.133,0.562-0.52,0.465-0.893L65.29,59.485c0.12-0.023,0.237-0.051,0.353-0.081  h0.001h0.001c0,0,0.001,0,0.001-0.001c0.115-0.03,0.23-0.063,0.347-0.101l4.723,18.092c0.097,0.373,0.471,0.611,0.842,0.553  l5.285-0.83l0.063,0.242L64.596,80.574z M44.61,29.613c0.09,0.036,0.185,0.054,0.28,0.054s0.19-0.018,0.28-0.054  c0.232-0.094,5.681-2.337,5.681-6.337c0-2.088-1.698-3.787-3.785-3.787c-0.787,0-1.583,0.379-2.158,0.868  c-0.598-0.514-1.437-0.868-2.192-0.868c-2.088,0-3.787,1.699-3.787,3.787C38.929,27.276,44.378,29.52,44.61,29.613z M42.716,20.989  c0.589,0,1.325,0.467,1.492,0.834c0.118,0.258,0.371,0.428,0.655,0.438c0.284,0.018,0.55-0.141,0.686-0.39  c0.219-0.4,0.944-0.883,1.518-0.883c1.26,0,2.285,1.026,2.285,2.287c0,2.559-3.441,4.348-4.461,4.821  c-1.021-0.474-4.462-2.263-4.462-4.821C40.429,22.015,41.455,20.989,42.716,20.989z M54.369,22.042c0,2.858,3.817,4.43,3.98,4.496  c0.09,0.036,0.185,0.054,0.28,0.054s0.19-0.018,0.28-0.054c0.163-0.066,3.979-1.638,3.979-4.496c0-1.542-1.253-2.796-2.794-2.796  c-0.525,0-1.045,0.215-1.454,0.516c-0.427-0.313-0.97-0.516-1.477-0.516C55.623,19.246,54.369,20.5,54.369,22.042z M57.165,20.746  c0.317,0,0.72,0.281,0.782,0.418c0.118,0.259,0.371,0.429,0.655,0.439c0.28,0.018,0.55-0.141,0.686-0.39  c0.099-0.18,0.508-0.467,0.808-0.467c0.714,0,1.294,0.582,1.294,1.296c0,1.383-1.789,2.519-2.76,2.98  c-0.971-0.461-2.761-1.597-2.761-2.98C55.869,21.327,56.45,20.746,57.165,20.746z M34.98,19.734c0.09,0.036,0.185,0.054,0.28,0.054  s0.19-0.018,0.28-0.054c0.163-0.066,3.979-1.638,3.979-4.496c0-1.542-1.253-2.796-2.794-2.796c-0.525,0-1.045,0.215-1.454,0.516  c-0.427-0.313-0.97-0.516-1.477-0.516c-1.542,0-2.796,1.254-2.796,2.796C31,18.097,34.817,19.668,34.98,19.734z M33.796,13.943  c0.317,0,0.72,0.281,0.782,0.418c0.118,0.259,0.371,0.429,0.655,0.439c0.287,0.016,0.55-0.141,0.686-0.39  c0.099-0.18,0.508-0.467,0.808-0.467c0.714,0,1.294,0.582,1.294,1.296c0,1.383-1.789,2.519-2.76,2.98  c-0.971-0.461-2.761-1.597-2.761-2.98C32.5,14.524,33.081,13.943,33.796,13.943z M51.976,18.073c0.09,0.036,0.185,0.054,0.28,0.054  s0.19-0.018,0.28-0.055c0.314-0.126,3.073-1.303,3.073-3.515c0-1.25-1.018-2.268-2.268-2.268c-0.357,0-0.745,0.131-1.075,0.341  c-0.328-0.211-0.721-0.341-1.098-0.341c-1.25,0-2.268,1.017-2.268,2.268C48.901,16.77,51.661,17.946,51.976,18.073z M51.169,13.791  c0.139,0,0.36,0.133,0.404,0.198c0.116,0.254,0.37,0.411,0.648,0.426c0.281,0.019,0.55-0.138,0.693-0.378  c0.052-0.088,0.287-0.245,0.427-0.245c0.423,0,0.768,0.344,0.768,0.768c0,0.882-1.176,1.654-1.854,1.995  c-0.68-0.338-1.854-1.107-1.854-1.995C50.401,14.135,50.746,13.791,51.169,13.791z M33.647,31.481  c0.09,0.036,0.185,0.054,0.28,0.054s0.19-0.018,0.28-0.055c0.314-0.126,3.073-1.303,3.073-3.515c0-1.25-1.018-2.268-2.268-2.268  c-0.357,0-0.745,0.131-1.075,0.341c-0.328-0.211-0.721-0.341-1.098-0.341c-1.25,0-2.268,1.017-2.268,2.268  C30.573,30.177,33.333,31.354,33.647,31.481z M32.841,27.198c0.139,0,0.36,0.133,0.404,0.198c0.116,0.254,0.37,0.411,0.648,0.426  c0.283,0.014,0.551-0.138,0.693-0.378c0.052-0.088,0.287-0.245,0.427-0.245c0.423,0,0.768,0.344,0.768,0.768  c0,0.882-1.176,1.654-1.854,1.995c-0.68-0.338-1.854-1.107-1.854-1.995C32.073,27.542,32.418,27.198,32.841,27.198z"></path></g></g><g class="sampleTexts_1" transform="scale(1) translate(-0.000009155273431815658,39.194664001464844)"><g class="logo--name svgLogoName_1 logoNameBox" transform="scale(1) translate(196.43938460350037,215.68070220947266)" fill="#ffffff"><path d="M5.90-11.38L5.18 2.74L5.18 2.74Q5.04 3.53 4.93 4.28L4.93 4.28L4.93 4.28Q4.82 5.04 5.18 5.83L5.18 5.83L5.18 5.83Q5.33 6.62 4.46 6.98L4.46 6.98L4.46 6.98Q4.10 7.13 3.74 7.02L3.74 7.02L3.74 7.02Q3.38 6.91 3.24 6.55L3.24 6.55L3.24 6.55Q3.10 6.19 2.92 5.87L2.92 5.87L2.92 5.87Q2.74 5.54 2.81 5.18L2.81 5.18L2.81 1.44L2.81 1.44Q3.17-1.30 3.38-3.92L3.38-3.92L3.38-3.92Q3.60-6.55 3.82-9.29L3.82-9.29L3.82-9.29Q3.89-10.51 4.03-11.66L4.03-11.66L4.03-11.66Q4.18-12.82 4.32-14.04L4.32-14.04L4.32-14.04Q4.46-14.90 3.96-15.70L3.96-15.70L3.24-18.14L3.24-18.14Q2.66-20.30 4.18-21.74L4.18-21.74L4.18-21.74Q4.61-22.18 4.86-22.46L4.86-22.46L4.86-22.46Q5.11-22.75 5.22-23.00L5.22-23.00L5.22-23.00Q5.33-23.26 5.40-23.62L5.40-23.62L5.40-23.62Q5.47-23.98 5.54-24.62L5.54-24.62L5.54-24.62Q6.12-27.86 6.55-31.14L6.55-31.14L6.55-31.14Q6.98-34.42 7.42-37.66L7.42-37.66L8.35-41.90L8.28-42.34L8.28-42.34Q8.14-42.26 8.06-42.26L8.06-42.26L8.06-42.26Q7.99-42.26 7.92-42.19L7.92-42.19L7.92-42.19Q6.91-41.40 6.05-40.64L6.05-40.64L6.05-40.64Q5.18-39.89 4.39-38.88L4.39-38.88L4.39-38.88Q4.25-38.52 4.03-38.23L4.03-38.23L4.03-38.23Q3.82-37.94 3.82-37.51L3.82-37.51L3.82-37.51Q3.82-36.72 3.10-36.58L3.10-36.58L3.10-36.58Q2.30-36.43 2.09-37.15L2.09-37.15L2.09-37.15Q1.80-38.09 2.16-38.95L2.16-38.95L2.16-38.95Q2.52-39.53 2.88-40.07L2.88-40.07L2.88-40.07Q3.24-40.61 3.67-41.11L3.67-41.11L3.67-41.11Q4.61-42.34 5.80-43.31L5.80-43.31L5.80-43.31Q6.98-44.28 8.35-45.07L8.35-45.07L8.35-45.07Q9.14-45.43 9.22-46.30L9.22-46.30L9.22-46.30Q9.29-46.66 9.36-47.02L9.36-47.02L9.36-47.02Q9.43-47.38 9.65-47.74L9.65-47.74L9.65-47.74Q10.08-48.53 10.73-48.46L10.73-48.46L10.73-48.46Q11.16-48.38 11.38-48.10L11.38-48.10L11.38-48.10Q11.59-47.81 11.74-47.38L11.74-47.38L11.74-47.38Q11.74-47.30 11.66-47.27L11.66-47.27L11.66-47.27Q11.59-47.23 11.59-47.16L11.59-47.16L11.59-47.16Q11.59-46.66 12.02-46.80L12.02-46.80L12.02-46.80Q12.46-46.94 12.89-47.02L12.89-47.02L12.89-47.02Q13.32-47.09 13.82-47.09L13.82-47.09L13.82-47.09Q15.62-47.38 17.42-46.80L17.42-46.80L17.42-46.80Q18.86-46.22 19.58-45.07L19.58-45.07L19.58-45.07Q20.30-43.92 20.45-42.41L20.45-42.41L20.45-42.41Q20.74-39.53 19.44-36.65L19.44-36.65L19.44-36.65Q18.65-34.78 17.53-33.16L17.53-33.16L17.53-33.16Q16.42-31.54 15.12-29.95L15.12-29.95L15.12-29.95Q13.68-28.08 11.92-26.42L11.92-26.42L11.92-26.42Q10.15-24.77 8.28-23.18L8.28-23.18L8.28-23.18Q7.92-22.75 7.63-22.28L7.63-22.28L7.63-22.28Q7.34-21.82 7.20-21.17L7.20-21.17L6.70-16.49L6.70-16.49Q6.48-15.77 6.84-15.26L6.84-15.26L6.84-15.26Q9.43-10.73 13.03-6.62L13.03-6.62L13.03-6.62Q14.33-5.18 15.77-3.85L15.77-3.85L15.77-3.85Q17.21-2.52 18.86-1.51L18.86-1.51L18.86-1.51Q19.94-0.79 21.17-0.32L21.17-0.32L21.17-0.32Q22.39 0.14 23.83 0.14L23.83 0.14L23.83 0.14Q25.42 0.14 26.78-0.43L26.78-0.43L26.78-0.43Q26.93-0.58 27.11-0.61L27.11-0.61L27.11-0.61Q27.29-0.65 27.58-0.79L27.58-0.79L27.58-0.79Q27.94-0.94 28.30-0.83L28.30-0.83L28.30-0.83Q28.66-0.72 28.80-0.36L28.80-0.36L28.80-0.36Q29.16 0.50 28.37 0.94L28.37 0.94L28.37 0.94Q27.86 1.30 26.86 1.66L26.86 1.66L26.86 1.66Q24.48 2.52 22.28 2.16L22.28 2.16L22.28 2.16Q20.09 1.80 18.00 0.58L18.00 0.58L18.00 0.58Q15.98-0.65 14.26-2.16L14.26-2.16L14.26-2.16Q12.53-3.67 11.02-5.47L11.02-5.47L11.02-5.47Q9.86-6.77 8.86-8.17L8.86-8.17L8.86-8.17Q7.85-9.58 6.77-11.02L6.77-11.02L6.19-11.66L6.19-11.66Q5.90-11.59 5.90-11.38L5.90-11.38ZM11.09-42.98L8.64-27.00L8.64-27.00Q8.50-26.42 8.50-26.14L8.50-26.14L8.50-26.14Q8.57-26.06 8.53-26.03L8.53-26.03L8.53-26.03Q8.50-25.99 8.57-25.92L8.57-25.92L8.57-25.92Q8.71-26.06 8.93-26.06L8.93-26.06L8.93-26.06Q9.00-26.06 8.96-26.10L8.96-26.10L8.96-26.10Q8.93-26.14 9.07-26.21L9.07-26.21L9.07-26.21Q10.80-27.86 12.35-29.63L12.35-29.63L12.35-29.63Q13.90-31.39 15.19-33.34L15.19-33.34L15.19-33.34Q16.56-35.42 17.57-37.30L17.57-37.30L17.57-37.30Q18.07-38.16 18.25-39.06L18.25-39.06L18.25-39.06Q18.43-39.96 18.58-40.97L18.58-40.97L18.58-40.97Q18.72-42.84 17.75-43.85L17.75-43.85L17.75-43.85Q16.78-44.86 14.90-44.71L14.90-44.71L14.90-44.71Q14.18-44.64 13.46-44.46L13.46-44.46L13.46-44.46Q12.74-44.28 12.02-44.14L12.02-44.14L12.02-44.14Q11.23-43.92 11.09-42.98L11.09-42.98ZM38.59-14.69L38.59-14.69L38.59-14.69Q38.02-14.11 37.33-13.18L37.33-13.18L37.33-13.18Q36.65-12.24 35.71-11.09L35.71-11.09L35.71-11.09Q34.56-9.65 33.37-8.35L33.37-8.35L33.37-8.35Q32.18-7.06 31.46-6.48L31.46-6.48L31.46-6.48Q30.67-5.98 29.74-5.54L29.74-5.54L29.74-5.54Q28.80-5.11 27.83-5.00L27.83-5.00L27.83-5.00Q26.86-4.90 25.96-5.15L25.96-5.15L25.96-5.15Q25.06-5.40 24.48-6.34L24.48-6.34L24.48-6.34Q22.90-8.57 22.68-11.16L22.68-11.16L22.68-11.16Q22.46-13.75 22.82-16.34L22.82-16.34L22.82-16.34Q22.97-17.21 23.08-18.04L23.08-18.04L23.08-18.04Q23.18-18.86 23.54-19.66L23.54-19.66L23.54-19.66Q23.62-19.87 23.98-20.09L23.98-20.09L23.98-20.09Q24.34-20.30 24.70-20.30L24.70-20.30L24.70-20.30Q25.06-20.30 25.31-20.09L25.31-20.09L25.31-20.09Q25.56-19.87 25.49-19.30L25.49-19.30L25.20-17.06L25.20-17.06Q25.13-15.91 25.06-14.72L25.06-14.72L25.06-14.72Q24.98-13.54 25.02-12.38L25.02-12.38L25.02-12.38Q25.06-11.23 25.31-10.19L25.31-10.19L25.31-10.19Q25.56-9.14 26.14-8.28L26.14-8.28L26.14-8.28Q26.78-7.34 27.68-7.38L27.68-7.38L27.68-7.38Q28.58-7.42 29.56-7.99L29.56-7.99L29.56-7.99Q30.53-8.57 31.50-9.50L31.50-9.50L31.50-9.50Q32.47-10.44 33.26-11.38L33.26-11.38L33.26-11.38Q34.06-12.31 34.60-13.00L34.60-13.00L34.60-13.00Q35.14-13.68 35.21-13.75L35.21-13.75L35.21-13.75Q35.35-14.11 36.00-14.83L36.00-14.83L36.00-14.83Q36.65-15.55 37.30-16.13L37.30-16.13L37.30-16.13Q37.66-16.49 38.16-16.70L38.16-16.70L38.16-16.70Q38.66-16.92 38.99-16.85L38.99-16.85L38.99-16.85Q39.31-16.78 39.28-16.27L39.28-16.27L39.28-16.27Q39.24-15.77 38.59-14.69ZM26.06-23.90L26.06-23.90L26.06-23.90Q25.56-23.90 25.20-24.26L25.20-24.26L25.20-24.26Q24.84-24.62 24.84-25.13L24.84-25.13L24.84-25.13Q24.84-25.63 25.16-26.06L25.16-26.06L25.16-26.06Q25.49-26.50 25.99-26.50L25.99-26.50L25.99-26.50Q27.29-26.50 27.43-25.13L27.43-25.13L27.43-25.13Q27.43-24.62 27.04-24.26L27.04-24.26L27.04-24.26Q26.64-23.90 26.06-23.90ZM35.78-12.53L35.78-12.53L35.78-12.53Q36-15.70 37.01-17.71L37.01-17.71L37.01-17.71Q38.02-19.73 40.10-21.46L40.10-21.46L40.10-21.46Q40.61-21.89 41.11-22.21L41.11-22.21L41.11-22.21Q41.62-22.54 42.41-22.68L42.41-22.68L42.41-22.68Q43.42-22.97 44.28-22.43L44.28-22.43L44.28-22.43Q45.14-21.89 45.36-20.66L45.36-20.66L45.36-20.66Q45.36-20.52 45.40-20.34L45.40-20.34L45.40-20.34Q45.43-20.16 45.43-20.02L45.43-20.02L45.43-20.02Q45.29-19.30 44.78-19.22L44.78-19.22L44.78-19.22Q44.35-19.15 44.14-19.26L44.14-19.26L44.14-19.26Q43.92-19.37 43.56-19.66L43.56-19.66L43.56-19.66Q43.56-19.80 43.49-20.05L43.49-20.05L43.49-20.05Q43.42-20.30 43.13-20.30L43.13-20.30L43.13-20.30Q42.62-20.30 42.19-19.87L42.19-19.87L42.19-19.87Q41.83-19.66 41.58-19.40L41.58-19.40L41.58-19.40Q41.33-19.15 40.97-18.79L40.97-18.79L40.97-18.79Q39.82-17.50 39.24-16.02L39.24-16.02L39.24-16.02Q38.66-14.54 38.52-12.89L38.52-12.89L38.52-11.52L38.52-11.52Q38.88-10.30 39.96-10.66L39.96-10.66L39.96-10.66Q40.32-10.80 40.72-10.94L40.72-10.94L40.72-10.94Q41.11-11.09 41.40-11.30L41.40-11.30L41.40-11.30Q43.20-12.31 45.04-13.46L45.04-13.46L45.04-13.46Q46.87-14.62 48.74-15.98L48.74-15.98L48.74-15.98Q49.75-16.70 50.69-17.39L50.69-17.39L50.69-17.39Q51.62-18.07 52.49-18.86L52.49-18.86L52.49-18.86Q53.06-19.22 53.46-19.62L53.46-19.62L53.46-19.62Q53.86-20.02 54.72-20.74L54.72-20.74L54.72-20.74Q55.37-21.10 55.87-20.74L55.87-20.74L55.87-20.74Q56.02-20.52 56.05-20.27L56.05-20.27L56.05-20.27Q56.09-20.02 55.80-19.66L55.80-19.66L55.80-19.66Q55.44-19.22 55.04-18.79L55.04-18.79L55.04-18.79Q54.65-18.36 54.29-18.00L54.29-18.00L54.29-18.00Q53.71-17.42 53.06-16.88L53.06-16.88L53.06-16.88Q52.42-16.34 51.70-15.77L51.70-15.77L51.70-15.77Q49.46-14.11 47.48-12.64L47.48-12.64L47.48-12.64Q45.50-11.16 43.56-9.94L43.56-9.94L43.56-9.94Q42.98-9.58 42.41-9.25L42.41-9.25L42.41-9.25Q41.83-8.93 41.18-8.57L41.18-8.57L41.18-8.57Q40.97-8.42 40.64-8.32L40.64-8.32L40.64-8.32Q40.32-8.21 40.10-8.06L40.10-8.06L40.10-8.06Q38.23-7.49 37.19-8.50L37.19-8.50L37.19-8.50Q36.14-9.50 35.78-11.38L35.78-11.38L35.78-11.38Q35.78-11.66 35.75-11.92L35.75-11.92L35.75-11.92Q35.71-12.17 35.78-12.53ZM58.97-21.96L58.97-21.96L58.97-21.96Q59.18-21.17 59.44-20.48L59.44-20.48L59.44-20.48Q59.69-19.80 59.83-19.08L59.83-19.08L59.83-19.08Q60.26-17.78 60.44-16.56L60.44-16.56L60.44-16.56Q60.62-15.34 60.62-14.04L60.62-14.04L60.62-14.04Q62.50-14.11 64.30-14.51L64.30-14.51L64.30-14.51Q66.10-14.90 67.18-15.48L67.18-15.48L67.18-15.48Q67.90-15.84 68.36-16.09L68.36-16.09L68.36-16.09Q68.83-16.34 69.16-16.56L69.16-16.56L69.16-16.56Q69.48-16.78 69.80-17.10L69.80-17.10L69.80-17.10Q70.13-17.42 70.56-18.00L70.56-18.00L70.56-18.00Q71.21-18.43 71.78-18.22L71.78-18.22L71.78-18.22Q72.36-18.00 72-17.35L72-17.35L72-17.35Q71.35-16.56 70.96-16.13L70.96-16.13L70.96-16.13Q70.56-15.70 70.20-15.41L70.20-15.41L70.20-15.41Q69.84-15.12 69.41-14.83L69.41-14.83L69.41-14.83Q68.98-14.54 68.26-14.11L68.26-14.11L68.26-14.11Q66.82-13.18 64.76-12.74L64.76-12.74L64.76-12.74Q62.71-12.31 60.62-12.38L60.62-12.38L60.62-12.38Q60.41-10.15 59.18-8.64L59.18-8.64L59.18-8.64Q58.46-7.63 57.53-7.45L57.53-7.45L57.53-7.45Q56.59-7.27 55.66-7.56L55.66-7.56L55.66-7.56Q54.72-7.85 53.96-8.53L53.96-8.53L53.96-8.53Q53.21-9.22 52.92-10.08L52.92-10.08L52.92-10.08Q52.27-11.59 52.42-13.39L52.42-13.39L52.42-13.39Q52.42-14.83 52.78-16.13L52.78-16.13L52.78-16.13Q53.14-17.42 53.93-18.79L53.93-18.79L53.93-18.79Q54.43-19.94 55.73-20.88L55.73-20.88L55.73-20.88Q55.87-21.10 55.94-21.13L55.94-21.13L55.94-21.13Q56.02-21.17 56.16-21.31L56.16-21.31L56.16-21.31Q56.16-21.31 56.02-21.60L56.02-21.60L56.02-21.60Q55.87-21.89 55.73-22.18L55.73-22.18L55.73-22.18Q55.58-22.46 55.51-22.75L55.51-22.75L55.51-22.75Q55.44-23.33 55.51-23.58L55.51-23.58L55.51-23.58Q55.58-23.83 56.16-24.26L56.16-24.26L56.16-24.26Q56.66-24.77 57.20-24.66L57.20-24.66L57.20-24.66Q57.74-24.55 58.18-24.12L58.18-24.12L58.18-24.12Q58.61-23.69 58.82-23.08L58.82-23.08L58.82-23.08Q59.04-22.46 58.97-21.96ZM58.46-14.11L58.46-14.11L58.46-14.11Q58.68-15.19 58.32-16.38L58.32-16.38L58.32-16.38Q57.96-17.57 57.67-18.79L57.67-18.79L57.67-18.79Q57.67-19.15 57.49-19.37L57.49-19.37L57.49-19.37Q57.31-19.58 56.95-19.37L56.95-19.37L56.95-19.37Q56.59-18.79 56.38-18.32L56.38-18.32L56.38-18.32Q56.16-17.86 55.94-17.35L55.94-17.35L55.37-15.34L55.37-15.34Q56.38-14.33 58.46-14.11ZM57.10-9.79L57.10-9.79L57.10-9.79Q58.10-11.16 58.32-12.60L58.32-12.60L58.32-12.60Q56.74-12.82 55.30-13.54L55.30-13.54L55.30-13.54Q55.37-12.74 55.40-11.95L55.40-11.95L55.40-11.95Q55.44-11.16 55.66-10.37L55.66-10.37L55.66-10.37Q55.80-9.79 56.20-9.43L56.20-9.43L56.20-9.43Q56.59-9.07 57.10-9.79ZM70.70-14.54L70.70-14.54L70.70-14.54Q70.63-15.77 70.63-16.74L70.63-16.74L70.63-16.74Q70.63-17.71 70.63-18.65L70.63-18.65L70.63-18.65Q70.56-19.01 70.63-19.30L70.63-19.30L70.63-19.30Q70.70-19.58 70.85-19.94L70.85-19.94L70.85-19.94Q71.06-21.02 71.93-20.88L71.93-20.88L71.93-20.88Q72.72-20.81 72.72-19.73L72.72-19.73L72.72-19.73Q72.86-18.07 72.90-16.49L72.90-16.49L72.90-16.49Q72.94-14.90 73.08-13.25L73.08-13.25L73.08-13.25Q73.08-12.89 73.15-12.60L73.15-12.60L73.15-12.60Q73.22-12.31 73.22-11.95L73.22-11.95L73.22-11.95Q73.30-11.81 73.44-11.66L73.44-11.66L73.66-11.88L73.66-11.88Q74.16-12.67 74.70-13.39L74.70-13.39L74.70-13.39Q75.24-14.11 75.82-14.83L75.82-14.83L75.82-14.83Q76.03-15.19 76.28-15.44L76.28-15.44L76.28-15.44Q76.54-15.70 76.97-15.91L76.97-15.91L76.97-15.91Q78.62-17.35 79.92-15.48L79.92-15.48L79.92-15.48Q80.28-15.05 80.50-14.54L80.50-14.54L80.50-14.54Q80.71-14.04 80.93-13.54L80.93-13.54L82.58-9.36L82.58-9.36Q82.73-9.00 82.87-8.71L82.87-8.71L82.87-8.71Q83.02-8.42 83.16-8.14L83.16-8.14L83.16-8.14Q83.52-7.78 83.70-7.78L83.70-7.78L83.70-7.78Q83.88-7.78 84.02-8.14L84.02-8.14L84.02-8.14Q84.31-8.28 84.46-8.50L84.46-8.50L84.46-8.50Q84.60-8.71 84.82-8.93L84.82-8.93L84.82-8.93Q85.39-9.72 86.18-9.29L86.18-9.29L86.18-9.29Q87.05-8.78 86.54-7.78L86.54-7.78L86.54-7.78Q85.97-6.62 84.96-5.90L84.96-5.90L84.96-5.90Q83.45-4.75 82.01-6.12L82.01-6.12L82.01-6.12Q81.72-6.48 81.50-6.84L81.50-6.84L81.50-6.84Q81.29-7.20 81.07-7.56L81.07-7.56L81.07-7.56Q80.42-8.64 79.88-9.79L79.88-9.79L79.88-9.79Q79.34-10.94 78.91-12.17L78.91-12.17L78.91-12.17Q78.91-12.31 78.84-12.49L78.84-12.49L78.84-12.49Q78.77-12.67 78.70-12.82L78.70-12.82L78.70-12.82Q78.34-13.82 78.19-13.93L78.19-13.93L78.19-13.93Q78.05-14.04 77.26-13.03L77.26-13.03L77.26-13.03Q76.18-11.95 75.46-10.69L75.46-10.69L75.46-10.69Q74.74-9.43 73.94-8.21L73.94-8.21L73.94-8.21Q73.73-7.70 73.37-7.20L73.37-7.20L73.37-7.20Q72.86-6.62 72.29-6.70L72.29-6.70L72.29-6.70Q71.71-6.77 71.35-7.42L71.35-7.42L71.35-7.42Q71.21-7.78 71.17-8.10L71.17-8.10L71.17-8.10Q71.14-8.42 70.99-8.78L70.99-8.78L70.99-8.78Q70.78-10.37 70.67-11.84L70.67-11.84L70.67-11.84Q70.56-13.32 70.70-14.54ZM95.62-17.86L95.54-17.71L95.54-17.71Q95.54-14.54 96.41-11.52L96.41-11.52L96.41-11.52Q96.62-11.16 96.73-10.87L96.73-10.87L96.73-10.87Q96.84-10.58 97.06-10.30L97.06-10.30L97.06-10.30Q97.42-9.58 98.60-10.08L98.60-10.08L98.60-10.08Q99.79-10.58 100.66-11.30L100.66-11.30L100.66-11.30Q101.16-11.74 101.63-12.28L101.63-12.28L101.63-12.28Q102.10-12.82 102.46-13.25L102.46-13.25L102.46-13.25Q103.18-14.33 103.72-15.44L103.72-15.44L103.72-15.44Q104.26-16.56 104.90-17.71L104.90-17.71L104.90-17.71Q105.12-18.00 105.34-18.29L105.34-18.29L105.34-18.29Q105.55-18.58 105.70-18.86L105.70-18.86L105.70-18.86Q105.98-19.44 106.31-19.62L106.31-19.62L106.31-19.62Q106.63-19.80 107.06-19.87L107.06-19.87L107.06-19.87Q107.50-19.87 107.68-19.55L107.68-19.55L107.68-19.55Q107.86-19.22 107.71-18.86L107.71-18.86L107.71-18.86Q107.64-18.72 107.57-18.54L107.57-18.54L107.57-18.54Q107.50-18.36 107.42-18.22L107.42-18.22L107.42-18.22Q106.63-16.78 105.91-15.41L105.91-15.41L105.91-15.41Q105.19-14.04 104.26-12.60L104.26-12.60L104.26-12.60Q103.46-11.38 102.56-10.40L102.56-10.40L102.56-10.40Q101.66-9.43 100.37-8.71L100.37-8.71L100.37-8.71Q96.62-6.84 95.04-9.07L95.04-9.07L95.04-9.07Q94.03-10.30 93.67-11.95L93.67-11.95L93.67-11.95Q93.10-13.97 93.02-16.06L93.02-16.06L93.02-16.06Q92.95-16.20 92.99-16.38L92.99-16.38L92.99-16.38Q93.02-16.56 92.88-16.70L92.88-16.70L92.88-16.70Q92.81-16.56 92.66-16.42L92.66-16.42L92.66-16.42Q92.52-16.27 92.52-16.13L92.52-16.13L89.86-11.02L89.86-11.02Q89.64-10.66 89.39-10.40L89.39-10.40L89.39-10.40Q89.14-10.15 88.99-9.94L88.99-9.94L88.99-9.94Q88.42-9.36 87.62-9.50L87.62-9.50L87.62-9.50Q86.83-9.65 86.47-10.44L86.47-10.44L86.47-10.44Q86.11-11.16 86.04-11.88L86.04-11.88L86.04-11.88Q85.97-12.60 86.04-13.39L86.04-13.39L86.04-13.39Q86.33-15.34 86.98-17.14L86.98-17.14L86.98-17.14Q87.62-18.94 88.99-20.45L88.99-20.45L88.99-20.45Q89.42-20.95 89.96-21.31L89.96-21.31L89.96-21.31Q90.50-21.67 91.08-22.03L91.08-22.03L91.08-22.03Q91.94-22.61 92.95-22.10L92.95-22.10L92.95-22.10Q93.17-21.96 93.53-22.10L93.53-22.10L93.53-22.10Q95.26-22.46 95.33-20.88L95.33-20.88L95.33-20.88Q95.47-20.23 95.44-19.58L95.44-19.58L95.44-19.58Q95.40-18.94 95.54-18.29L95.54-18.29L95.62-17.86ZM88.06-12.60L88.06-12.46L88.06-12.46Q88.06-12.24 88.06-12.24L88.06-12.24L88.49-12.46L88.49-12.46Q88.49-12.46 88.49-12.67L88.49-12.67L88.49-12.67Q89.64-14.40 90.61-16.16L90.61-16.16L90.61-16.16Q91.58-17.93 92.45-19.80L92.45-19.80L92.45-19.80Q92.59-19.87 92.59-20.16L92.59-20.16L92.59-20.16Q92.23-20.16 92.09-20.09L92.09-20.09L92.09-20.09Q91.94-19.94 91.69-19.87L91.69-19.87L91.69-19.87Q91.44-19.80 91.30-19.66L91.30-19.66L91.30-19.66Q90.22-18.43 89.42-16.92L89.42-16.92L89.42-16.92Q88.99-15.91 88.63-14.83L88.63-14.83L88.63-14.83Q88.27-13.75 88.06-12.60L88.06-12.60ZM106.27-14.54L106.27-14.54L106.27-14.54Q106.20-15.77 106.20-16.74L106.20-16.74L106.20-16.74Q106.20-17.71 106.20-18.65L106.20-18.65L106.20-18.65Q106.13-19.01 106.20-19.30L106.20-19.30L106.20-19.30Q106.27-19.58 106.42-19.94L106.42-19.94L106.42-19.94Q106.63-21.02 107.50-20.88L107.50-20.88L107.50-20.88Q108.29-20.81 108.29-19.73L108.29-19.73L108.29-19.73Q108.43-18.07 108.47-16.49L108.47-16.49L108.47-16.49Q108.50-14.90 108.65-13.25L108.65-13.25L108.65-13.25Q108.65-12.89 108.72-12.60L108.72-12.60L108.72-12.60Q108.79-12.31 108.79-11.95L108.79-11.95L108.79-11.95Q108.86-11.81 109.01-11.66L109.01-11.66L109.22-11.88L109.22-11.88Q109.73-12.67 110.27-13.39L110.27-13.39L110.27-13.39Q110.81-14.11 111.38-14.83L111.38-14.83L111.38-14.83Q111.60-15.19 111.85-15.44L111.85-15.44L111.85-15.44Q112.10-15.70 112.54-15.91L112.54-15.91L112.54-15.91Q114.19-17.35 115.49-15.48L115.49-15.48L115.49-15.48Q115.85-15.05 116.06-14.54L116.06-14.54L116.06-14.54Q116.28-14.04 116.50-13.54L116.50-13.54L118.15-9.36L118.15-9.36Q118.30-9.00 118.44-8.71L118.44-8.71L118.44-8.71Q118.58-8.42 118.73-8.14L118.73-8.14L118.73-8.14Q119.09-7.78 119.27-7.78L119.27-7.78L119.27-7.78Q119.45-7.78 119.59-8.14L119.59-8.14L119.59-8.14Q119.88-8.28 120.02-8.50L120.02-8.50L120.02-8.50Q120.17-8.71 120.38-8.93L120.38-8.93L120.38-8.93Q120.96-9.72 121.75-9.29L121.75-9.29L121.75-9.29Q122.62-8.78 122.11-7.78L122.11-7.78L122.11-7.78Q121.54-6.62 120.53-5.90L120.53-5.90L120.53-5.90Q119.02-4.75 117.58-6.12L117.58-6.12L117.58-6.12Q117.29-6.48 117.07-6.84L117.07-6.84L117.07-6.84Q116.86-7.20 116.64-7.56L116.64-7.56L116.64-7.56Q115.99-8.64 115.45-9.79L115.45-9.79L115.45-9.79Q114.91-10.94 114.48-12.17L114.48-12.17L114.48-12.17Q114.48-12.31 114.41-12.49L114.41-12.49L114.41-12.49Q114.34-12.67 114.26-12.82L114.26-12.82L114.26-12.82Q113.90-13.82 113.76-13.93L113.76-13.93L113.76-13.93Q113.62-14.04 112.82-13.03L112.82-13.03L112.82-13.03Q111.74-11.95 111.02-10.69L111.02-10.69L111.02-10.69Q110.30-9.43 109.51-8.21L109.51-8.21L109.51-8.21Q109.30-7.70 108.94-7.20L108.94-7.20L108.94-7.20Q108.43-6.62 107.86-6.70L107.86-6.70L107.86-6.70Q107.28-6.77 106.92-7.42L106.92-7.42L106.92-7.42Q106.78-7.78 106.74-8.10L106.74-8.10L106.74-8.10Q106.70-8.42 106.56-8.78L106.56-8.78L106.56-8.78Q106.34-10.37 106.24-11.84L106.24-11.84L106.24-11.84Q106.13-13.32 106.27-14.54ZM122.98-27.65L122.90-30.53L122.90-30.53Q123.05-30.89 122.94-30.96L122.94-30.96L122.94-30.96Q122.83-31.03 122.40-30.89L122.40-30.89L122.40-30.89Q121.39-30.82 120.56-30.74L120.56-30.74L120.56-30.74Q119.74-30.67 118.87-30.53L118.87-30.53L118.87-30.53Q118.80-30.46 118.51-30.46L118.51-30.46L118.51-30.46Q118.15-30.38 117.86-30.60L117.86-30.60L117.86-30.60Q117.58-30.82 117.50-31.03L117.50-31.03L117.50-31.03Q117.22-31.82 117.86-32.04L117.86-32.04L118.58-32.18L118.58-32.18Q119.66-32.33 120.60-32.44L120.60-32.44L120.60-32.44Q121.54-32.54 122.54-32.54L122.54-32.54L122.54-32.54Q123.05-32.69 123.12-32.76L123.12-32.76L123.12-32.76Q123.19-32.83 123.26-33.26L123.26-33.26L124.27-40.54L124.27-40.54Q124.42-42.41 124.78-44.35L124.78-44.35L124.78-44.35Q125.14-46.30 125.50-48.24L125.50-48.24L125.50-48.24Q125.71-49.25 125.89-50.26L125.89-50.26L125.89-50.26Q126.07-51.26 126.29-52.27L126.29-52.27L126.29-52.27Q126.43-52.63 126.50-52.92L126.50-52.92L126.50-52.92Q126.58-53.21 126.79-53.50L126.79-53.50L126.79-53.50Q126.86-54.07 127.80-54.07L127.80-54.07L127.80-54.07Q128.59-53.93 128.52-53.21L128.52-53.21L128.52-53.21Q128.59-52.92 128.52-52.56L128.52-52.56L128.52-52.56Q128.23-50.33 127.91-48.13L127.91-48.13L127.91-48.13Q127.58-45.94 127.15-43.63L127.15-43.63L127.15-43.63Q126.79-40.97 126.68-38.59L126.68-38.59L126.68-38.59Q126.58-36.22 126-33.70L126-33.70L126-33.70Q125.86-33.19 126.43-33.12L126.43-33.12L126.43-33.12Q128.30-33.26 130.21-33.01L130.21-33.01L130.21-33.01Q132.12-32.76 133.99-33.19L133.99-33.19L133.99-33.19Q134.14-33.19 134.28-33.23L134.28-33.23L134.28-33.23Q134.42-33.26 134.64-33.19L134.64-33.19L134.64-33.19Q135-33.12 135.14-32.90L135.14-32.90L135.14-32.90Q135.29-32.69 135.36-32.54L135.36-32.54L135.36-32.54Q135.36-32.18 135.22-32.08L135.22-32.08L135.22-32.08Q135.07-31.97 134.86-31.82L134.86-31.82L134.86-31.82Q134.42-31.68 133.99-31.57L133.99-31.57L133.99-31.57Q133.56-31.46 132.98-31.39L132.98-31.39L132.98-31.39Q132.05-31.32 131.11-31.28L131.11-31.28L131.11-31.28Q130.18-31.25 129.31-31.10L129.31-31.10L129.31-31.10Q128.66-31.03 127.94-31.03L127.94-31.03L127.94-31.03Q127.22-31.03 126.58-31.03L126.58-31.03L126.58-31.03Q126-31.03 125.93-30.96L125.93-30.96L125.93-30.96Q125.86-30.89 125.86-30.38L125.86-30.38L125.86-30.38Q125.64-29.09 125.60-27.58L125.60-27.58L125.60-27.58Q125.57-26.06 125.64-24.70L125.64-24.70L125.64-24.70Q125.50-21.10 125.46-17.50L125.46-17.50L125.46-17.50Q125.42-13.90 125.64-10.30L125.64-10.30L125.64-10.30Q125.64-7.56 125.78-4.75L125.78-4.75L125.78-4.75Q125.93-1.94 126.07 0.79L126.07 0.79L126.07 0.79Q126.29 1.44 126.29 2.30L126.29 2.30L126.29 2.30Q126.50 2.74 126.14 3.10L126.14 3.10L126.14 3.10Q125.78 3.38 125.28 3.31L125.28 3.31L125.28 3.31Q124.78 3.24 124.49 2.81L124.49 2.81L124.49 2.81Q124.42 2.66 124.34 2.45L124.34 2.45L124.34 2.45Q124.27 2.23 124.34 2.02L124.34 2.02L124.34 2.02Q124.20 1.01 124.06 0.04L124.06 0.04L124.06 0.04Q123.91-0.94 123.84-1.94L123.84-1.94L123.84-1.94Q123.70-4.25 123.41-6.30L123.41-6.30L123.41-6.30Q123.12-8.35 122.98-10.66L122.98-10.66L122.98-10.66Q122.90-11.66 122.90-12.67L122.90-12.67L122.90-12.67Q122.90-13.68 122.90-14.83L122.90-14.83L122.90-14.83Q122.90-16.06 122.90-17.93L122.90-17.93L122.90-17.93Q122.90-19.80 122.90-21.71L122.90-21.71L122.90-21.71Q122.90-23.62 122.94-25.27L122.94-25.27L122.94-25.27Q122.98-26.93 122.98-27.65L122.98-27.65ZM133.99-9.50L133.99-9.50L133.99-9.50Q131.18-10.58 130.82-13.61L130.82-13.61L130.82-13.61Q130.75-14.40 130.82-15.26L130.82-15.26L130.82-15.26Q130.90-16.13 131.18-16.92L131.18-16.92L131.18-16.92Q132.05-21.17 135.65-23.62L135.65-23.62L135.65-23.62Q136.37-24.19 137.12-24.52L137.12-24.52L137.12-24.52Q137.88-24.84 138.89-24.70L138.89-24.70L138.89-24.70Q140.83-24.48 141.26-22.54L141.26-22.54L141.26-22.54Q141.41-21.60 141.26-20.81L141.26-20.81L141.26-20.81Q141.12-20.02 140.47-19.30L140.47-19.30L140.47-19.30Q139.39-17.86 137.66-17.28L137.66-17.28L137.66-17.28Q136.94-17.06 136.22-17.06L136.22-17.06L136.22-17.06Q135.50-17.06 134.71-17.64L134.71-17.64L134.71-17.64Q134.42-17.78 134.35-17.75L134.35-17.75L134.35-17.75Q134.28-17.71 134.14-17.42L134.14-17.42L134.14-17.42Q133.78-16.49 133.60-15.62L133.60-15.62L133.60-15.62Q133.42-14.76 133.56-13.82L133.56-13.82L133.56-13.82Q133.85-12.24 135.29-11.66L135.29-11.66L135.29-11.66Q136.37-11.30 137.38-11.30L137.38-11.30L137.38-11.30Q138.38-11.30 139.39-11.66L139.39-11.66L139.39-11.66Q140.47-11.95 141.48-12.46L141.48-12.46L141.48-12.46Q143.35-13.32 145.22-14.15L145.22-14.15L145.22-14.15Q147.10-14.98 148.97-15.98L148.97-15.98L148.97-15.98Q151.06-16.99 152.89-18.14L152.89-18.14L152.89-18.14Q154.73-19.30 156.82-20.23L156.82-20.23L156.82-20.23Q157.39-20.09 157.28-19.73L157.28-19.73L157.28-19.73Q157.18-19.37 156.82-18.79L156.82-18.79L156.82-18.79Q156.67-18.50 156.46-18.29L156.46-18.29L156.46-18.29Q156.24-18.07 156.10-17.93L156.10-17.93L156.10-17.93Q155.09-17.14 154.15-16.70L154.15-16.70L154.15-16.70Q153.22-16.27 152.21-15.55L152.21-15.55L152.21-15.55Q149.54-13.97 146.84-12.64L146.84-12.64L146.84-12.64Q144.14-11.30 141.41-10.08L141.41-10.08L141.41-10.08Q139.75-9.29 137.77-9.04L137.77-9.04L137.77-9.04Q135.79-8.78 133.99-9.50ZM136.22-19.37L136.51-19.37L136.51-19.37Q137.30-19.44 138.17-19.87L138.17-19.87L138.17-19.87Q139.03-20.30 139.18-21.31L139.18-21.31L139.18-21.31Q139.39-22.10 138.85-22.25L138.85-22.25L138.85-22.25Q138.31-22.39 137.52-21.89L137.52-21.89L137.52-21.89Q136.94-21.53 136.58-21.13L136.58-21.13L136.58-21.13Q136.22-20.74 135.79-20.23L135.79-20.23L135.79-20.23Q135.58-20.09 135.54-19.94L135.54-19.94L135.54-19.94Q135.50-19.80 135.36-19.66L135.36-19.66L135.36-19.66Q135.65-19.51 136.22-19.37L136.22-19.37ZM178.49-24.41L178.49-24.41L178.49-24.41Q178.13-25.92 177.91-27.83L177.91-27.83L177.91-27.83Q177.70-29.74 177.48-31.82L177.48-31.82L177.48-31.82Q177.26-32.04 177.34-32.26L177.34-32.26L177.34-32.26Q177.41-32.47 177.05-32.33L177.05-32.33L177.05-32.33Q176.90-31.68 176.80-31.07L176.80-31.07L176.80-31.07Q176.69-30.46 176.54-29.88L176.54-29.88L176.54-29.88Q175.68-24.48 174.67-19.15L174.67-19.15L174.67-19.15Q173.66-13.82 172.73-8.42L172.73-8.42L172.73-8.42Q172.58-7.63 172.40-6.77L172.40-6.77L172.40-6.77Q172.22-5.90 171.94-5.04L171.94-5.04L171.94-5.04Q171.79-4.54 171.61-4.03L171.61-4.03L171.61-4.03Q171.43-3.53 171.07-3.17L171.07-3.17L171.07-3.17Q170.50-2.16 169.52-2.16L169.52-2.16L169.52-2.16Q168.55-2.16 168.05-3.02L168.05-3.02L168.05-3.02Q167.69-3.74 167.44-4.46L167.44-4.46L167.44-4.46Q167.18-5.18 166.97-5.90L166.97-5.90L166.97-5.90Q166.39-8.42 166.03-11.05L166.03-11.05L166.03-11.05Q165.67-13.68 165.31-16.27L165.31-16.27L165.31-16.27Q164.95-21.31 164.88-26.39L164.88-26.39L164.88-26.39Q164.81-31.46 164.88-36.50L164.88-36.50L164.88-36.50Q164.88-38.88 164.99-41.18L164.99-41.18L164.99-41.18Q165.10-43.49 165.46-45.79L165.46-45.79L165.46-45.79Q165.60-46.22 165.67-46.58L165.67-46.58L165.67-46.58Q165.74-46.94 166.03-47.30L166.03-47.30L166.03-47.30Q166.03-47.66 166.25-47.92L166.25-47.92L166.25-47.92Q166.46-48.17 166.61-48.46L166.61-48.46L166.61-48.46Q167.18-49.10 167.98-48.46L167.98-48.46L167.98-48.46Q168.84-48.17 168.62-47.23L168.62-47.23L168.62-47.23Q168.12-44.93 168.01-42.59L168.01-42.59L168.01-42.59Q167.90-40.25 168.05-37.87L168.05-37.87L168.05-37.87Q167.98-33.34 168.08-28.76L168.08-28.76L168.08-28.76Q168.19-24.19 168.41-19.66L168.41-19.66L168.41-19.66Q168.70-16.99 168.98-14.36L168.98-14.36L168.98-14.36Q169.27-11.74 169.63-9.07L169.63-9.07L169.63-9.07Q169.56-8.57 169.70-8.28L169.70-8.28L169.70-8.28Q169.63-8.21 169.78-7.92L169.78-7.92L169.78-7.92Q170.14-8.28 170.28-8.86L170.28-8.86L170.28-8.86Q170.42-9.43 170.50-10.01L170.50-10.01L170.50-10.01Q171.36-14.40 172.15-18.86L172.15-18.86L172.15-18.86Q172.94-23.33 173.81-27.79L173.81-27.79L173.81-27.79Q174.46-31.32 175.14-34.81L175.14-34.81L175.14-34.81Q175.82-38.30 176.54-41.83L176.54-41.83L176.54-41.83Q176.69-42.41 176.76-42.95L176.76-42.95L176.76-42.95Q176.83-43.49 176.90-44.06L176.90-44.06L176.90-44.06Q177.12-45.22 178.27-45.50L178.27-45.50L178.27-45.50Q179.28-45.50 179.71-44.14L179.71-44.14L179.71-44.14Q179.86-43.56 179.86-43.06L179.86-43.06L179.86-43.06Q179.86-42.55 180-41.98L180-41.98L180-41.98Q180.36-37.87 180.68-33.88L180.68-33.88L180.68-33.88Q181.01-29.88 181.44-25.78L181.44-25.78L181.44-25.78Q182.23-19.94 183.42-14.33L183.42-14.33L183.42-14.33Q184.61-8.71 186.48-3.17L186.48-3.17L188.35 0.86L188.35 0.86Q188.50 0.94 188.68 1.15L188.68 1.15L188.68 1.15Q188.86 1.37 189.07 1.44L189.07 1.44L189.07 1.44Q189.29 1.51 189.54 1.37L189.54 1.37L189.54 1.37Q189.79 1.22 190.15 0.58L190.15 0.58L190.15 0.58Q190.58-0.79 190.84-2.23L190.84-2.23L190.84-2.23Q191.09-3.67 191.23-5.11L191.23-5.11L192.60-20.02L192.60-20.02Q193.03-24.55 193.28-29.09L193.28-29.09L193.28-29.09Q193.54-33.62 193.82-38.30L193.82-38.30L193.82-38.30Q193.97-39.67 194.04-41.08L194.04-41.08L194.04-41.08Q194.11-42.48 194.18-43.99L194.18-43.99L194.18-43.99Q194.11-44.28 194.08-44.60L194.08-44.60L194.08-44.60Q194.04-44.93 194.11-45.22L194.11-45.22L194.11-45.22Q193.82-46.44 194.83-46.80L194.83-46.80L194.83-46.80Q195.34-46.94 195.73-46.66L195.73-46.66L195.73-46.66Q196.13-46.37 196.13-45.72L196.13-45.72L196.13-45.72Q196.27-45.07 196.38-44.35L196.38-44.35L196.38-44.35Q196.49-43.63 196.42-42.84L196.42-42.84L196.42-42.84Q196.20-38.30 196.02-33.84L196.02-33.84L196.02-33.84Q195.84-29.38 195.55-24.98L195.55-24.98L195.55-24.98Q195.12-20.02 194.76-15.08L194.76-15.08L194.76-15.08Q194.40-10.15 193.82-5.18L193.82-5.18L193.82-5.18Q193.68-3.82 193.43-2.34L193.43-2.34L193.43-2.34Q193.18-0.86 193.03 0.58L193.03 0.58L193.03 0.58Q192.82 1.37 192.53 2.12L192.53 2.12L192.53 2.12Q192.24 2.88 191.66 3.60L191.66 3.60L191.66 3.60Q190.87 4.82 189.68 4.97L189.68 4.97L189.68 4.97Q188.50 5.11 187.27 4.25L187.27 4.25L187.27 4.25Q186.26 3.46 185.62 2.23L185.62 2.23L185.62 2.23Q184.97 1.01 184.39-0.22L184.39-0.22L184.39-0.22Q183.38-2.45 182.70-4.75L182.70-4.75L182.70-4.75Q182.02-7.06 181.30-9.36L181.30-9.36L181.30-9.36Q180.50-12.89 179.82-16.49L179.82-16.49L179.82-16.49Q179.14-20.09 178.49-24.41ZM205.13-9.50L205.13-9.50L205.13-9.50Q202.32-10.58 201.96-13.61L201.96-13.61L201.96-13.61Q201.89-14.40 201.96-15.26L201.96-15.26L201.96-15.26Q202.03-16.13 202.32-16.92L202.32-16.92L202.32-16.92Q203.18-21.17 206.78-23.62L206.78-23.62L206.78-23.62Q207.50-24.19 208.26-24.52L208.26-24.52L208.26-24.52Q209.02-24.84 210.02-24.70L210.02-24.70L210.02-24.70Q211.97-24.48 212.40-22.54L212.40-22.54L212.40-22.54Q212.54-21.60 212.40-20.81L212.40-20.81L212.40-20.81Q212.26-20.02 211.61-19.30L211.61-19.30L211.61-19.30Q210.53-17.86 208.80-17.28L208.80-17.28L208.80-17.28Q208.08-17.06 207.36-17.06L207.36-17.06L207.36-17.06Q206.64-17.06 205.85-17.64L205.85-17.64L205.85-17.64Q205.56-17.78 205.49-17.75L205.49-17.75L205.49-17.75Q205.42-17.71 205.27-17.42L205.27-17.42L205.27-17.42Q204.91-16.49 204.73-15.62L204.73-15.62L204.73-15.62Q204.55-14.76 204.70-13.82L204.70-13.82L204.70-13.82Q204.98-12.24 206.42-11.66L206.42-11.66L206.42-11.66Q207.50-11.30 208.51-11.30L208.51-11.30L208.51-11.30Q209.52-11.30 210.53-11.66L210.53-11.66L210.53-11.66Q211.61-11.95 212.62-12.46L212.62-12.46L212.62-12.46Q214.49-13.32 216.36-14.15L216.36-14.15L216.36-14.15Q218.23-14.98 220.10-15.98L220.10-15.98L220.10-15.98Q222.19-16.99 224.03-18.14L224.03-18.14L224.03-18.14Q225.86-19.30 227.95-20.23L227.95-20.23L227.95-20.23Q228.53-20.09 228.42-19.73L228.42-19.73L228.42-19.73Q228.31-19.37 227.95-18.79L227.95-18.79L227.95-18.79Q227.81-18.50 227.59-18.29L227.59-18.29L227.59-18.29Q227.38-18.07 227.23-17.93L227.23-17.93L227.23-17.93Q226.22-17.14 225.29-16.70L225.29-16.70L225.29-16.70Q224.35-16.27 223.34-15.55L223.34-15.55L223.34-15.55Q220.68-13.97 217.98-12.64L217.98-12.64L217.98-12.64Q215.28-11.30 212.54-10.08L212.54-10.08L212.54-10.08Q210.89-9.29 208.91-9.04L208.91-9.04L208.91-9.04Q206.93-8.78 205.13-9.50ZM207.36-19.37L207.65-19.37L207.65-19.37Q208.44-19.44 209.30-19.87L209.30-19.87L209.30-19.87Q210.17-20.30 210.31-21.31L210.31-21.31L210.31-21.31Q210.53-22.10 209.99-22.25L209.99-22.25L209.99-22.25Q209.45-22.39 208.66-21.89L208.66-21.89L208.66-21.89Q208.08-21.53 207.72-21.13L207.72-21.13L207.72-21.13Q207.36-20.74 206.93-20.23L206.93-20.23L206.93-20.23Q206.71-20.09 206.68-19.94L206.68-19.94L206.68-19.94Q206.64-19.80 206.50-19.66L206.50-19.66L206.50-19.66Q206.78-19.51 207.36-19.37L207.36-19.37ZM259.99-37.80L261.58-49.97L261.58-49.97Q261.72-50.18 261.72-50.40L261.72-50.40L261.72-50.40Q261.72-50.62 261.86-50.76L261.86-50.76L261.86-50.76Q262.22-51.41 263.02-51.55L263.02-51.55L263.02-51.55Q263.59-51.55 264.10-50.83L264.10-50.83L264.10-50.83Q264.24-50.47 264.24-50.11L264.24-50.11L264.24-50.11Q264.24-49.75 264.17-49.39L264.17-49.39L264.17-49.39Q264.02-47.38 263.59-45.40L263.59-45.40L263.59-45.40Q263.16-43.42 262.94-41.40L262.94-41.40L262.94-41.40Q262.58-38.38 262.51-35.42L262.51-35.42L262.51-35.42Q262.44-32.47 262.22-29.45L262.22-29.45L262.22-29.45Q261.94-25.78 262.08-22.21L262.08-22.21L262.08-22.21Q262.22-18.65 262.30-14.98L262.30-14.98L262.30-14.98Q262.37-9.14 262.48-3.31L262.48-3.31L262.48-3.31Q262.58 2.52 262.51 8.35L262.51 8.35L262.51 8.35Q262.66 8.64 262.62 8.89L262.62 8.89L262.62 8.89Q262.58 9.14 262.58 9.36L262.58 9.36L262.58 9.36Q262.37 10.51 261.22 10.37L261.22 10.37L261.22 10.37Q260.78 10.30 260.46 9.94L260.46 9.94L260.46 9.94Q260.14 9.58 260.14 9.07L260.14 9.07L260.14 9.07Q260.14 8.64 260.17 8.21L260.17 8.21L260.17 8.21Q260.21 7.78 260.21 7.34L260.21 7.34L260.21 7.34Q259.99 0.43 259.99-6.48L259.99-6.48L259.99-6.48Q259.85-7.27 259.88-7.99L259.88-7.99L259.88-7.99Q259.92-8.71 259.85-9.50L259.85-9.50L259.78-9.36L259.78-9.36Q259.70-11.88 259.85-14.33L259.85-14.33L259.85-14.33Q259.99-16.78 259.99-19.30L259.99-19.30L259.99-19.30Q259.85-20.66 259.85-22.03L259.85-22.03L259.85-22.03Q259.85-23.40 259.85-24.77L259.85-24.77L259.78-24.26L257.04-11.88L257.04-11.88Q256.75-10.37 256.36-8.82L256.36-8.82L256.36-8.82Q255.96-7.27 255.46-5.83L255.46-5.83L255.46-5.83Q255.17-5.26 254.88-4.82L254.88-4.82L254.88-4.82Q254.59-4.39 254.30-3.96L254.30-3.96L254.30-3.96Q253.94-3.60 253.62-3.38L253.62-3.38L253.62-3.38Q253.30-3.17 252.86-2.95L252.86-2.95L252.86-2.95Q251.35-2.16 250.20-3.74L250.20-3.74L250.20-3.74Q249.84-4.25 249.52-4.72L249.52-4.72L249.52-4.72Q249.19-5.18 249.12-5.76L249.12-5.76L249.12-5.76Q248.04-11.09 250.49-15.84L250.49-15.84L250.49-15.84Q250.78-16.49 251.24-16.99L251.24-16.99L251.24-16.99Q251.71-17.50 252.29-18.00L252.29-18.00L252.29-18.00Q253.73-19.15 255.53-18.00L255.53-18.00L255.53-18.00Q255.96-17.78 256.03-17.82L256.03-17.82L256.03-17.82Q256.10-17.86 256.18-18.22L256.18-18.22L257.54-24.12L257.54-24.12Q258.12-27.58 258.77-30.92L258.77-30.92L258.77-30.92Q259.42-34.27 259.99-37.80L259.99-37.80ZM251.50-5.90L251.57-5.76L251.57-5.76Q251.86-5.47 251.86-5.18L251.86-5.18L251.86-5.18Q251.78-5.11 251.86-5.00L251.86-5.00L251.86-5.00Q251.93-4.90 252-4.90L252-4.90L252-4.90Q252.22-4.90 252.22-5.18L252.22-5.18L253.15-6.62L253.15-6.62Q253.87-8.78 254.45-10.94L254.45-10.94L254.45-10.94Q255.02-13.10 255.38-15.34L255.38-15.34L255.38-15.34Q255.38-15.48 255.46-15.70L255.46-15.70L255.46-15.70Q255.53-15.91 255.38-16.06L255.38-16.06L255.38-16.06Q254.95-16.20 254.77-16.31L254.77-16.31L254.77-16.31Q254.59-16.42 254.30-16.42L254.30-16.42L254.30-16.42Q253.37-15.62 252.58-14.58L252.58-14.58L252.58-14.58Q251.78-13.54 251.64-12.10L251.64-12.10L251.64-12.10Q251.28-10.66 251.32-9.11L251.32-9.11L251.32-9.11Q251.35-7.56 251.50-5.90L251.50-5.90ZM240.70-9.43L240.55-9.29L240.55-9.29Q240.48-11.81 240.66-14.26L240.66-14.26L240.66-14.26Q240.84-16.70 240.77-19.22L240.77-19.22L240.77-19.22Q240.62-21.74 240.66-24.16L240.66-24.16L240.66-24.16Q240.70-26.57 240.91-29.02L240.91-29.02L240.91-29.02Q241.06-30.96 241.09-32.90L241.09-32.90L241.09-32.90Q241.13-34.85 241.34-36.79L241.34-36.79L241.34-36.79Q241.42-37.08 241.34-37.44L241.34-37.44L241.34-37.44Q241.34-37.51 241.20-37.66L241.20-37.66L241.20-37.66Q241.20-37.58 241.16-37.58L241.16-37.58L241.16-37.58Q241.13-37.58 241.13-37.51L241.13-37.51L240.26-35.35L237.17-26.86L232.85-16.27L232.85-16.27Q232.42-14.98 231.84-13.68L231.84-13.68L231.84-13.68Q231.26-12.38 230.54-11.16L230.54-11.16L230.54-11.16Q229.90-10.30 229.25-9.65L229.25-9.65L229.25-9.65Q228.67-9.07 227.74-8.86L227.74-8.86L227.74-8.86Q227.09-8.57 226.44-8.82L226.44-8.82L226.44-8.82Q225.79-9.07 225.50-9.72L225.50-9.72L225.50-9.72Q225.22-10.15 225-10.58L225-10.58L225-10.58Q224.78-11.02 224.78-11.52L224.78-11.52L224.78-11.52Q224.64-16.42 227.52-20.23L227.52-20.23L227.52-20.23Q227.88-20.81 228.42-21.20L228.42-21.20L228.42-21.20Q228.96-21.60 229.54-21.96L229.54-21.96L229.54-21.96Q230.69-22.82 232.20-21.74L232.20-21.74L232.20-21.74Q232.56-21.53 232.60-21.53L232.60-21.53L232.60-21.53Q232.63-21.53 232.78-21.89L232.78-21.89L234.86-26.93L234.86-26.93Q235.94-29.88 237.06-32.72L237.06-32.72L237.06-32.72Q238.18-35.57 239.26-38.59L239.26-38.59L239.26-38.59Q240.26-41.40 241.16-44.24L241.16-44.24L241.16-44.24Q242.06-47.09 242.93-49.90L242.93-49.90L242.93-49.90Q243.07-50.11 243.07-50.33L243.07-50.33L243.07-50.33Q243.07-50.54 243.22-50.69L243.22-50.69L243.22-50.69Q243.65-51.34 244.44-51.48L244.44-51.48L244.44-51.48Q244.80-51.48 245.02-51.30L245.02-51.30L245.02-51.30Q245.23-51.12 245.52-50.76L245.52-50.76L245.52-50.76Q245.66-50.40 245.63-50.04L245.63-50.04L245.63-50.04Q245.59-49.68 245.52-49.32L245.52-49.32L245.52-49.32Q245.38-47.30 245.12-45.32L245.12-45.32L245.12-45.32Q244.87-43.34 244.58-41.33L244.58-41.33L244.58-41.33Q244.22-38.30 243.90-35.35L243.90-35.35L243.90-35.35Q243.58-32.40 243.36-29.38L243.36-29.38L243.36-29.38Q243.07-25.70 243.04-22.14L243.04-22.14L243.04-22.14Q243-18.58 243.14-14.90L243.14-14.90L243.14-14.90Q243.14-9.07 243.25-3.24L243.25-3.24L243.25-3.24Q243.36 2.59 243.29 8.42L243.29 8.42L243.29 8.42Q243.43 8.71 243.40 8.96L243.40 8.96L243.40 8.96Q243.36 9.22 243.36 9.43L243.36 9.43L243.36 9.43Q243.14 10.58 241.99 10.44L241.99 10.44L241.99 10.44Q241.56 10.37 241.24 10.01L241.24 10.01L241.24 10.01Q240.91 9.65 240.91 9.14L240.91 9.14L240.91 9.14Q240.91 8.71 240.95 8.28L240.95 8.28L240.95 8.28Q240.98 7.85 240.98 7.42L240.98 7.42L240.98 7.42Q240.84 3.96 240.80 0.50L240.80 0.50L240.80 0.50Q240.77-2.95 240.84-6.41L240.84-6.41L240.84-6.41Q240.70-7.20 240.73-7.92L240.73-7.92L240.73-7.92Q240.77-8.64 240.70-9.43L240.70-9.43ZM227.30-12.24L227.38-11.74L227.38-11.74Q227.38-11.45 227.66-11.45L227.66-11.45L227.66-11.45Q227.74-11.45 227.88-11.59L227.88-11.59L228.67-12.67L228.67-12.67Q229.61-14.18 230.29-15.77L230.29-15.77L230.29-15.77Q230.98-17.35 231.62-18.94L231.62-18.94L231.62-18.94Q231.62-19.08 231.70-19.30L231.70-19.30L231.70-19.30Q231.77-19.51 231.70-19.58L231.70-19.58L231.70-19.58Q231.48-19.73 231.34-19.80L231.34-19.80L231.34-19.80Q231.19-19.87 230.98-19.87L230.98-19.87L230.98-19.87Q230.83-19.87 230.65-19.76L230.65-19.76L230.65-19.76Q230.47-19.66 230.40-19.51L230.40-19.51L230.40-19.51Q229.75-19.01 229.39-18.32L229.39-18.32L229.39-18.32Q229.03-17.64 228.67-16.85L228.67-16.85L228.67-16.85Q228.17-15.77 227.81-14.62L227.81-14.62L227.81-14.62Q227.45-13.46 227.30-12.24L227.30-12.24ZM285.48-14.69L285.48-14.69L285.48-14.69Q284.90-14.11 284.22-13.18L284.22-13.18L284.22-13.18Q283.54-12.24 282.60-11.09L282.60-11.09L282.60-11.09Q281.45-9.65 280.26-8.35L280.26-8.35L280.26-8.35Q279.07-7.06 278.35-6.48L278.35-6.48L278.35-6.48Q277.56-5.98 276.62-5.54L276.62-5.54L276.62-5.54Q275.69-5.11 274.72-5.00L274.72-5.00L274.72-5.00Q273.74-4.90 272.84-5.15L272.84-5.15L272.84-5.15Q271.94-5.40 271.37-6.34L271.37-6.34L271.37-6.34Q269.78-8.57 269.57-11.16L269.57-11.16L269.57-11.16Q269.35-13.75 269.71-16.34L269.71-16.34L269.71-16.34Q269.86-17.21 269.96-18.04L269.96-18.04L269.96-18.04Q270.07-18.86 270.43-19.66L270.43-19.66L270.43-19.66Q270.50-19.87 270.86-20.09L270.86-20.09L270.86-20.09Q271.22-20.30 271.58-20.30L271.58-20.30L271.58-20.30Q271.94-20.30 272.20-20.09L272.20-20.09L272.20-20.09Q272.45-19.87 272.38-19.30L272.38-19.30L272.09-17.06L272.09-17.06Q272.02-15.91 271.94-14.72L271.94-14.72L271.94-14.72Q271.87-13.54 271.91-12.38L271.91-12.38L271.91-12.38Q271.94-11.23 272.20-10.19L272.20-10.19L272.20-10.19Q272.45-9.14 273.02-8.28L273.02-8.28L273.02-8.28Q273.67-7.34 274.57-7.38L274.57-7.38L274.57-7.38Q275.47-7.42 276.44-7.99L276.44-7.99L276.44-7.99Q277.42-8.57 278.39-9.50L278.39-9.50L278.39-9.50Q279.36-10.44 280.15-11.38L280.15-11.38L280.15-11.38Q280.94-12.31 281.48-13.00L281.48-13.00L281.48-13.00Q282.02-13.68 282.10-13.75L282.10-13.75L282.10-13.75Q282.24-14.11 282.89-14.83L282.89-14.83L282.89-14.83Q283.54-15.55 284.18-16.13L284.18-16.13L284.18-16.13Q284.54-16.49 285.05-16.70L285.05-16.70L285.05-16.70Q285.55-16.92 285.88-16.85L285.88-16.85L285.88-16.85Q286.20-16.78 286.16-16.27L286.16-16.27L286.16-16.27Q286.13-15.77 285.48-14.69ZM272.95-23.90L272.95-23.90L272.95-23.90Q272.45-23.90 272.09-24.26L272.09-24.26L272.09-24.26Q271.73-24.62 271.73-25.13L271.73-25.13L271.73-25.13Q271.73-25.63 272.05-26.06L272.05-26.06L272.05-26.06Q272.38-26.50 272.88-26.50L272.88-26.50L272.88-26.50Q274.18-26.50 274.32-25.13L274.32-25.13L274.32-25.13Q274.32-24.62 273.92-24.26L273.92-24.26L273.92-24.26Q273.53-23.90 272.95-23.90ZM285.34-14.54L285.34-14.54L285.34-14.54Q285.26-15.77 285.26-16.74L285.26-16.74L285.26-16.74Q285.26-17.71 285.26-18.65L285.26-18.65L285.26-18.65Q285.19-19.01 285.26-19.30L285.26-19.30L285.26-19.30Q285.34-19.58 285.48-19.94L285.48-19.94L285.48-19.94Q285.70-21.02 286.56-20.88L286.56-20.88L286.56-20.88Q287.35-20.81 287.35-19.73L287.35-19.73L287.35-19.73Q287.50-18.07 287.53-16.49L287.53-16.49L287.53-16.49Q287.57-14.90 287.71-13.25L287.71-13.25L287.71-13.25Q287.71-12.89 287.78-12.60L287.78-12.60L287.78-12.60Q287.86-12.31 287.86-11.95L287.86-11.95L287.86-11.95Q287.93-11.81 288.07-11.66L288.07-11.66L288.29-11.88L288.29-11.88Q288.79-12.67 289.33-13.39L289.33-13.39L289.33-13.39Q289.87-14.11 290.45-14.83L290.45-14.83L290.45-14.83Q290.66-15.19 290.92-15.44L290.92-15.44L290.92-15.44Q291.17-15.70 291.60-15.91L291.60-15.91L291.60-15.91Q293.26-17.35 294.55-15.48L294.55-15.48L294.55-15.48Q294.91-15.05 295.13-14.54L295.13-14.54L295.13-14.54Q295.34-14.04 295.56-13.54L295.56-13.54L297.22-9.36L297.22-9.36Q297.36-9.00 297.50-8.71L297.50-8.71L297.50-8.71Q297.65-8.42 297.79-8.14L297.79-8.14L297.79-8.14Q298.15-7.78 298.33-7.78L298.33-7.78L298.33-7.78Q298.51-7.78 298.66-8.14L298.66-8.14L298.66-8.14Q298.94-8.28 299.09-8.50L299.09-8.50L299.09-8.50Q299.23-8.71 299.45-8.93L299.45-8.93L299.45-8.93Q300.02-9.72 300.82-9.29L300.82-9.29L300.82-9.29Q301.68-8.78 301.18-7.78L301.18-7.78L301.18-7.78Q300.60-6.62 299.59-5.90L299.59-5.90L299.59-5.90Q298.08-4.75 296.64-6.12L296.64-6.12L296.64-6.12Q296.35-6.48 296.14-6.84L296.14-6.84L296.14-6.84Q295.92-7.20 295.70-7.56L295.70-7.56L295.70-7.56Q295.06-8.64 294.52-9.79L294.52-9.79L294.52-9.79Q293.98-10.94 293.54-12.17L293.54-12.17L293.54-12.17Q293.54-12.31 293.47-12.49L293.47-12.49L293.47-12.49Q293.40-12.67 293.33-12.82L293.33-12.82L293.33-12.82Q292.97-13.82 292.82-13.93L292.82-13.93L292.82-13.93Q292.68-14.04 291.89-13.03L291.89-13.03L291.89-13.03Q290.81-11.95 290.09-10.69L290.09-10.69L290.09-10.69Q289.37-9.43 288.58-8.21L288.58-8.21L288.58-8.21Q288.36-7.70 288.00-7.20L288.00-7.20L288.00-7.20Q287.50-6.62 286.92-6.70L286.92-6.70L286.92-6.70Q286.34-6.77 285.98-7.42L285.98-7.42L285.98-7.42Q285.84-7.78 285.80-8.10L285.80-8.10L285.80-8.10Q285.77-8.42 285.62-8.78L285.62-8.78L285.62-8.78Q285.41-10.37 285.30-11.84L285.30-11.84L285.30-11.84Q285.19-13.32 285.34-14.54ZM313.20-11.81L313.20-11.81L313.20-11.81Q312.84-7.63 312.55-3.49L312.55-3.49L312.55-3.49Q312.26 0.65 311.83 4.82L311.83 4.82L311.83 4.82Q311.62 7.70 311.11 10.55L311.11 10.55L311.11 10.55Q310.61 13.39 309.74 16.13L309.74 16.13L309.74 16.13Q309.24 17.64 308.66 19.12L308.66 19.12L308.66 19.12Q308.09 20.59 307.15 21.89L307.15 21.89L307.15 21.89Q306.58 22.68 305.96 23.29L305.96 23.29L305.96 23.29Q305.35 23.90 304.34 24.19L304.34 24.19L304.34 24.19Q302.98 24.62 301.82 23.62L301.82 23.62L301.82 23.62Q301.68 23.47 301.57 23.40L301.57 23.40L301.57 23.40Q301.46 23.33 301.46 23.18L301.46 23.18L301.46 23.18Q300.24 21.38 299.34 19.48L299.34 19.48L299.34 19.48Q298.44 17.57 297.86 15.48L297.86 15.48L297.86 15.48Q297.79 15.12 297.68 14.72L297.68 14.72L297.68 14.72Q297.58 14.33 297.65 13.97L297.65 13.97L297.65 13.97Q297.43 12.82 298.44 12.67L298.44 12.67L298.44 12.67Q299.23 12.53 299.45 13.68L299.45 13.68L299.45 13.68Q299.66 15.12 300.10 16.49L300.10 16.49L300.10 16.49Q300.60 17.78 301.21 19.01L301.21 19.01L301.21 19.01Q301.82 20.23 302.62 21.38L302.62 21.38L302.62 21.38Q302.98 21.96 303.26 21.96L303.26 21.96L303.26 21.96Q303.55 21.96 304.06 21.46L304.06 21.46L304.06 21.46Q304.85 20.74 305.32 19.91L305.32 19.91L305.32 19.91Q305.78 19.08 306.14 18.14L306.14 18.14L306.14 18.14Q307.01 15.91 307.62 13.61L307.62 13.61L307.62 13.61Q308.23 11.30 308.52 8.93L308.52 8.93L308.52 8.93Q308.95 6.26 309.24 3.64L309.24 3.64L309.24 3.64Q309.53 1.01 309.67-1.66L309.67-1.66L309.67-1.66Q309.89-5.11 310.00-8.46L310.00-8.46L310.00-8.46Q310.10-11.81 310.25-15.26L310.25-15.26L310.46-19.58L310.46-19.58Q310.39-19.73 310.43-19.91L310.43-19.91L310.43-19.91Q310.46-20.09 310.46-20.23L310.46-20.23L310.46-20.23Q310.39-20.23 310.39-20.30L310.39-20.30L310.39-20.45L310.39-20.59L310.39-20.59Q310.25-20.09 309.74-19.73L309.74-19.73L309.74-19.73Q308.74-18.22 307.87-16.70L307.87-16.70L307.87-16.70Q307.01-15.19 305.93-13.82L305.93-13.82L305.93-13.82Q305.57-13.46 305.28-13.21L305.28-13.21L305.28-13.21Q304.99-12.96 304.56-12.67L304.56-12.67L304.56-12.67Q303.77-12.10 302.83-12.46L302.83-12.46L302.83-12.46Q301.90-12.82 301.75-14.11L301.75-14.11L301.75-14.11Q301.68-15.12 301.86-16.09L301.86-16.09L301.86-16.09Q302.04-17.06 302.40-18.00L302.40-18.00L302.40-18.00Q303.41-21.24 306.00-23.11L306.00-23.11L306.00-23.11Q306.79-23.69 307.69-23.90L307.69-23.90L307.69-23.90Q308.59-24.12 309.53-23.83L309.53-23.83L309.53-23.83Q310.10-23.69 310.39-24.19L310.39-24.19L310.39-24.19Q310.54-24.55 310.90-24.84L310.90-24.84L310.90-24.84Q311.33-25.34 311.90-25.31L311.90-25.31L311.90-25.31Q312.48-25.27 312.91-24.70L312.91-24.70L312.91-24.70Q313.27-24.12 313.27-23.18L313.27-23.18L313.27-23.18Q313.34-22.10 313.42-21.02L313.42-21.02L313.42-21.02Q313.49-19.94 313.42-18.86L313.42-18.86L313.42-18.86Q313.42-17.06 313.31-15.30L313.31-15.30L313.31-15.30Q313.20-13.54 313.20-11.81ZM304.13-15.34L304.13-15.12L304.13-15.12Q303.91-15.05 304.20-14.90L304.20-14.90L304.42-15.05L304.42-15.05Q304.70-15.19 304.85-15.48L304.85-15.48L304.85-15.48Q305.50-16.42 306.14-17.32L306.14-17.32L306.14-17.32Q306.79-18.22 307.30-19.15L307.30-19.15L307.30-19.15Q307.66-19.66 307.91-20.12L307.91-20.12L307.91-20.12Q308.16-20.59 308.45-21.10L308.45-21.10L308.45-21.10Q308.59-21.24 308.59-21.31L308.59-21.31L308.59-21.31Q308.59-21.38 308.59-21.53L308.59-21.53L308.59-21.53Q308.45-21.53 308.38-21.56L308.38-21.56L308.38-21.56Q308.30-21.60 308.16-21.53L308.16-21.53L307.08-21.02L307.08-21.02Q304.56-18.94 304.13-15.34L304.13-15.34ZM318.67 3.74L318.31 3.46L318.31 3.46Q318.46 1.80 318.82 0.32L318.82 0.32L318.82 0.32Q319.18-1.15 319.54-2.59L319.54-2.59L319.54-2.59Q320.11-4.25 320.76-5.83L320.76-5.83L320.76-5.83Q321.41-7.42 322.20-8.86L322.20-8.86L322.20-8.86Q322.70-9.50 322.56-10.44L322.56-10.44L322.56-10.44Q321.84-12.96 320.90-15.34L320.90-15.34L320.90-15.34Q319.97-17.71 318.96-20.09L318.96-20.09L318.96-20.09Q318.67-20.66 318.49-21.28L318.49-21.28L318.49-21.28Q318.31-21.89 318.17-22.54L318.17-22.54L318.17-22.54Q318.10-23.62 318.49-24.52L318.49-24.52L318.49-24.52Q318.89-25.42 319.61-26.06L319.61-26.06L319.61-26.06Q320.33-26.71 321.19-27.04L321.19-27.04L321.19-27.04Q322.06-27.36 322.99-27.29L322.99-27.29L322.99-27.29Q324.65-27.07 325.80-26.42L325.80-26.42L325.80-26.42Q327.53-25.49 327.60-23.69L327.60-23.69L327.60-23.69Q327.60-23.47 327.53-23.22L327.53-23.22L327.53-23.22Q327.46-22.97 327.38-22.75L327.38-22.75L327.38-22.75Q327.17-22.32 326.74-22.32L326.74-22.32L326.74-22.32Q326.30-22.32 326.09-22.68L326.09-22.68L326.09-22.68Q325.80-22.90 325.66-23.26L325.66-23.26L325.66-23.26Q325.66-23.83 325.22-24.19L325.22-24.19L325.22-24.19Q324.79-24.55 324.36-24.70L324.36-24.70L324.36-24.70Q324.00-24.84 323.68-24.91L323.68-24.91L323.68-24.91Q323.35-24.98 322.99-24.98L322.99-24.98L322.99-24.98Q321.91-25.06 321.19-24.23L321.19-24.23L321.19-24.23Q320.47-23.40 320.76-22.32L320.76-22.32L320.76-22.32Q320.83-22.10 320.87-21.89L320.87-21.89L320.87-21.89Q320.90-21.67 321.05-21.46L321.05-21.46L321.05-21.46Q322.06-19.44 322.85-17.39L322.85-17.39L322.85-17.39Q323.64-15.34 324.36-13.25L324.36-13.25L324.36-13.25Q324.50-13.10 324.47-13.03L324.47-13.03L324.47-13.03Q324.43-12.96 324.58-12.82L324.58-12.82L324.58-12.82Q324.79-12.24 325.01-12.67L325.01-12.67L326.16-13.75L326.16-13.75Q326.66-14.33 327.42-14.90L327.42-14.90L327.42-14.90Q328.18-15.48 329.04-15.95L329.04-15.95L329.04-15.95Q329.90-16.42 330.77-16.88L330.77-16.88L330.77-16.88Q331.63-17.35 332.35-17.71L332.35-17.71L332.93-17.93L332.93-17.93Q333.22-18.07 333.54-17.96L333.54-17.96L333.54-17.96Q333.86-17.86 334.01-17.57L334.01-17.57L334.01-17.57Q334.51-16.92 333.72-16.42L333.72-16.42L333.14-15.98L333.14-15.98Q331.42-14.90 329.33-13.46L329.33-13.46L329.33-13.46Q327.24-12.02 326.02-10.37L326.02-10.37L326.02-10.37Q325.44-9.72 325.80-9.07L325.80-9.07L325.80-9.07Q326.09-7.63 326.34-6.26L326.34-6.26L326.34-6.26Q326.59-4.90 326.74-3.46L326.74-3.46L326.74-3.46Q326.81-1.37 326.45 0.65L326.45 0.65L326.45 0.65Q326.09 2.66 325.08 4.54L325.08 4.54L325.08 4.54Q324.72 5.26 324.11 5.83L324.11 5.83L324.11 5.83Q323.50 6.41 322.78 6.77L322.78 6.77L322.78 6.77Q321.48 7.42 320.36 6.95L320.36 6.95L320.36 6.95Q319.25 6.48 318.89 5.11L318.89 5.11L318.89 5.11Q318.74 4.75 318.74 4.36L318.74 4.36L318.74 4.36Q318.74 3.96 318.67 3.74L318.67 3.74ZM323.93-2.88L323.64-2.74L323.64-2.74Q323.71-3.31 323.60-4.14L323.60-4.14L323.60-4.14Q323.50-4.97 323.35-5.90L323.35-5.90L323.35-5.90Q323.35-6.05 323.21-6.34L323.21-6.34L323.21-6.34Q323.14-6.19 322.99-6.16L322.99-6.16L322.99-6.16Q322.85-6.12 322.85-5.98L322.85-5.98L322.85-5.98Q322.56-5.33 322.34-4.68L322.34-4.68L322.34-4.68Q322.13-4.03 321.77-3.38L321.77-3.38L321.77-3.38Q321.26-1.94 320.90-0.43L320.90-0.43L320.90-0.43Q320.54 1.08 320.40 2.66L320.40 2.66L320.40 2.66Q320.26 3.53 320.47 4.18L320.47 4.18L320.47 4.18Q320.69 4.61 320.90 4.72L320.90 4.72L320.90 4.72Q321.12 4.82 321.48 4.54L321.48 4.54L322.49 3.31L322.49 3.31Q323.28 2.02 323.53 0.50L323.53 0.50L323.53 0.50Q323.78-1.01 323.93-2.88L323.93-2.88Z"/></g><g id="" class="logo--name svgSloganText_1 sloganBox" transform="scale(1) translate(198.4,254.4)" fill="#ffffff"><path d=""/></g></g></g></g></svg>